<svg width="50" height="50" viewBox="0 0 50 50" fill="none" xmlns="http://www.w3.org/2000/svg">
<circle cx="25" cy="25" r="25" fill="#5271FF"/>
<path d="M25 19.3407C25.6897 19.3407 26.3727 19.2036 27.0099 18.9373C27.6471 18.671 28.2259 18.2808 28.7134 17.7888C29.2009 17.2968 29.5874 16.7128 29.8509 16.0701C30.1144 15.4273 30.2498 14.7385 30.2492 14.043C30.2492 12.6392 29.6962 11.2929 28.7118 10.3002C27.7274 9.3076 26.3922 8.75 25 8.75C23.6078 8.75 22.2729 9.3076 21.2885 10.3002C20.304 11.2929 19.7508 12.6392 19.7508 14.043C19.7508 15.4472 20.3037 16.794 21.288 17.7874C22.2723 18.7808 23.6074 19.3395 25 19.3407Z" fill="white"/>
<path d="M37.5 34.7776C37.4988 31.4355 36.1813 28.2306 33.8372 25.8679C31.4931 23.5051 28.3144 22.1778 25 22.1778C21.6856 22.1778 18.5071 23.5051 16.163 25.8679C13.8189 28.2306 12.5012 31.4355 12.5 34.7776C12.5 41.7408 37.5 41.7408 37.5 34.7776Z" fill="white"/>
</svg>
